<?xml version="1.0" encoding="UTF-8"?>
<svg id="_레이어_2" data-name="레이어 2" xmlns="http://www.w3.org/2000/svg" viewBox="0 0 488.43 84.08">
  <defs>
    <style>
      .cls-1 {
        fill: #0064ff;
        stroke: #0064ff;
        stroke-miterlimit: 10;
        stroke-width: .08px;
      }
    </style>
  </defs>
  <g id="_레이어_1-2" data-name="레이어 1">
    <g>
      <path class="cls-1" d="M6.04,62.37c-1.54-.29-2.84-1.07-3.92-2.34-1.08-1.27-1.74-2.68-1.98-4.21-.24-1.54-.04-3.08.61-4.64.65-1.56,1.65-2.72,2.99-3.49-1.01,1.2-1.79,2.53-2.34,4-.55,1.46-.73,2.8-.54,4,.19,1.25.78,2.48,1.76,3.71.98,1.22,2.12,2.22,3.42,2.99ZM3.74,19.02c-1.2-1.06-1.96-2.42-2.27-4.1-.31-1.68-.2-3.26.32-4.75.58-1.54,1.54-2.83,2.88-3.89,1.34-1.06,2.83-1.56,4.46-1.51-1.54.53-2.92,1.3-4.14,2.3-1.22,1.01-2.05,2.11-2.48,3.31-.48,1.2-.59,2.59-.32,4.18s.78,3.07,1.55,4.46ZM9.14,36.52c-1.39-.53-2.59-1.46-3.6-2.81-1.01-1.34-1.51-2.76-1.51-4.25s.5-2.9,1.51-4.25c1.01-1.34,2.21-2.26,3.6-2.74-1.15.91-2,2.02-2.56,3.31s-.83,2.52-.83,3.67.28,2.44.83,3.71c.55,1.27,1.4,2.39,2.56,3.35ZM9.14,48.83c-1.1-.38-2.09-1.12-2.95-2.2-.86-1.08-1.3-2.2-1.3-3.35s.43-2.34,1.3-3.42c.86-1.08,1.85-1.81,2.95-2.2-.91.77-1.56,1.66-1.94,2.66-.38,1.01-.58,1.99-.58,2.95s.19,1.88.58,2.92c.38,1.03,1.03,1.91,1.94,2.63ZM9.14,21.33c-1.01-.38-1.91-1.06-2.7-2.02-.79-.96-1.19-1.97-1.19-3.02s.4-2.06,1.19-3.02c.79-.96,1.69-1.63,2.7-2.02-.82.67-1.38,1.46-1.69,2.38-.31.91-.47,1.8-.47,2.66,0,.82.16,1.68.47,2.59.31.91.88,1.73,1.69,2.45ZM10,58.34c-.86-.19-1.69-.66-2.48-1.4-.79-.74-1.24-1.55-1.33-2.41-.1-.86.18-1.74.83-2.63.65-.89,1.36-1.52,2.12-1.91-.62.62-1,1.33-1.12,2.12-.12.79-.16,1.55-.11,2.27.1.67.29,1.38.58,2.12.29.74.79,1.36,1.51,1.84ZM9.64,10.17c.53-1.39,1.45-2.58,2.77-3.56,1.32-.98,2.7-1.48,4.14-1.48,1.49-.05,2.9.43,4.25,1.44,1.34,1.01,2.26,2.19,2.74,3.53-.96-1.1-2.06-1.92-3.31-2.45-1.25-.53-2.47-.79-3.67-.79s-2.35.26-3.6.79c-1.25.53-2.35,1.37-3.31,2.52ZM24.76,58.12c-.48,1.34-1.37,2.51-2.66,3.49-1.3.98-2.66,1.5-4.1,1.55-1.39,0-2.75-.47-4.07-1.4-1.32-.94-2.25-2.08-2.77-3.42.91,1.06,1.99,1.84,3.24,2.34,1.25.5,2.45.76,3.6.76,1.15-.05,2.34-.34,3.56-.86,1.22-.53,2.29-1.34,3.21-2.45ZM31.46,21.76c-1.1-.67-1.97-1.68-2.59-3.02-.82,1.87-2.11,3.17-3.89,3.89.96-.86,1.66-1.86,2.09-2.99.43-1.13.62-2.2.58-3.2,0-1.06-.23-2.14-.68-3.24-.46-1.1-1.19-2.06-2.2-2.88,1.58.58,2.83,1.63,3.74,3.17.38-1.25,1.07-2.36,2.05-3.35.98-.98,2.12-1.6,3.42-1.84-1.25.72-2.33,1.62-3.24,2.7-.91,1.08-1.46,2.2-1.66,3.35l-.07.22c.24.62.36,1.22.36,1.8.05.43.02.84-.07,1.22.38,1.49,1.1,2.88,2.16,4.18ZM24.98,23.78c.62-.72,1.48-1.26,2.56-1.62,1.08-.36,2.08-.37,2.99-.04.86.38,1.56,1.08,2.09,2.09.53,1.01.77,1.99.72,2.95-.29-.91-.77-1.63-1.44-2.16-.67-.53-1.34-.94-2.02-1.22-.72-.29-1.51-.48-2.38-.58-.86-.1-1.7.1-2.52.58ZM32.18,40.84c-.05.77-.34,1.57-.87,2.41-.53.84-1.15,1.36-1.87,1.55-.77.24-1.58.13-2.45-.32-.86-.46-1.54-1-2.02-1.62.62.43,1.3.64,2.02.61.72-.02,1.37-.13,1.94-.32.62-.14,1.23-.38,1.84-.72.6-.33,1.07-.86,1.4-1.58ZM24.98,44.01c1.3.43,2.41,1.27,3.35,2.52.94,1.25,1.4,2.54,1.4,3.89s-.47,2.7-1.4,3.92c-.94,1.22-2.05,2.08-3.35,2.56,1.06-.86,1.82-1.88,2.3-3.06.48-1.18.72-2.31.72-3.42s-.24-2.17-.72-3.35c-.48-1.18-1.25-2.2-2.3-3.06ZM33.4,48.83c.62.58,1.03,1.32,1.22,2.23.19.91.14,1.75-.14,2.52-.34.82-.89,1.49-1.66,2.02-.77.53-1.58.77-2.45.72,1.73-.58,2.88-1.56,3.46-2.95.58-1.44.43-2.95-.43-4.54ZM38.8,49.12c-1.01.29-2.11.24-3.31-.14-1.2-.38-2.09-1.01-2.66-1.87s-.79-1.92-.65-3.17c.14-1.25.53-2.28,1.15-3.1-.29,1.01-.31,1.97-.07,2.88.24.91.58,1.73,1.01,2.45.48.72,1.09,1.37,1.84,1.94.74.58,1.64.91,2.7,1.01ZM34.48,27.16c-.38-.62-.64-1.4-.76-2.34s.06-1.72.54-2.34c.43-.58,1.12-.95,2.05-1.12.94-.17,1.76-.13,2.48.11-.77.05-1.4.29-1.91.72-.5.43-.92.89-1.26,1.37-.38.48-.71,1.02-.97,1.62-.26.6-.32,1.26-.18,1.98ZM38.8,20.32c-.86-.29-1.66-.84-2.38-1.66-.72-.82-1.08-1.68-1.08-2.59s.36-1.77,1.08-2.59c.72-.82,1.51-1.37,2.38-1.66-.67.58-1.13,1.25-1.37,2.02-.24.77-.36,1.51-.36,2.23s.12,1.46.36,2.23c.24.77.7,1.44,1.37,2.02ZM42.55,58.34c-.86.1-1.8-.06-2.81-.47-1.01-.41-1.7-1-2.09-1.76-.38-.77-.44-1.67-.18-2.7.26-1.03.71-1.88,1.33-2.56-.34.82-.43,1.61-.29,2.38.14.77.38,1.46.72,2.09.29.62.69,1.24,1.22,1.84.53.6,1.22,1,2.09,1.19ZM38.87,10.6c.29-.96.86-1.85,1.73-2.66.86-.82,1.8-1.25,2.81-1.3.96-.05,1.92.29,2.88,1.01.96.72,1.63,1.54,2.02,2.45-.67-.72-1.45-1.2-2.34-1.44-.89-.24-1.72-.34-2.48-.29-.82.05-1.64.24-2.48.58-.84.34-1.55.89-2.12,1.66ZM52.34,58.34c-.29.86-.85,1.66-1.69,2.38-.84.72-1.72,1.08-2.63,1.08s-1.79-.36-2.63-1.08c-.84-.72-1.4-1.51-1.69-2.38.58.67,1.26,1.13,2.05,1.37.79.24,1.55.36,2.27.36s1.48-.12,2.27-.36c.79-.24,1.48-.7,2.05-1.37ZM49.46,10.1c1.1-.19,2.28-.02,3.53.5,1.25.53,2.14,1.27,2.66,2.23.53,1.01.68,2.17.47,3.49-.22,1.32-.71,2.41-1.48,3.28.43-1.06.56-2.1.4-3.13-.17-1.03-.47-1.96-.9-2.77-.43-.82-1.04-1.56-1.84-2.23-.79-.67-1.74-1.13-2.84-1.37ZM60.04,54.88c.53,1.3.59,2.65.18,4.07-.41,1.42-1.12,2.6-2.12,3.56-1.06.91-2.32,1.5-3.78,1.76-1.46.26-2.8.08-4-.54,1.34.19,2.69.13,4.03-.18,1.34-.31,2.42-.85,3.24-1.62.81-.72,1.44-1.73,1.87-3.02s.62-2.64.58-4.03ZM54.64,48.83c.91.48,1.69,1.22,2.34,2.23.65,1.01.9,1.99.76,2.95-.1,1.01-.59,1.92-1.48,2.74-.89.82-1.81,1.34-2.77,1.58.86-.53,1.49-1.21,1.87-2.05.38-.84.62-1.64.72-2.41.1-.82.05-1.67-.14-2.56-.19-.89-.62-1.72-1.3-2.48ZM54.64,20.75c1.2.43,2.26,1.24,3.17,2.41.91,1.18,1.37,2.41,1.37,3.71s-.46,2.54-1.37,3.74c-.91,1.2-1.97,2.02-3.17,2.45,1.01-.82,1.73-1.79,2.16-2.92.43-1.13.65-2.22.65-3.28s-.22-2.08-.65-3.2c-.43-1.13-1.15-2.1-2.16-2.92ZM54.64,34.22c1.34.48,2.5,1.37,3.46,2.66.96,1.3,1.44,2.66,1.44,4.1s-.48,2.74-1.44,4.03c-.96,1.3-2.11,2.18-3.46,2.66,1.1-.91,1.91-1.98,2.41-3.2s.76-2.39.76-3.49-.25-2.34-.76-3.56-1.31-2.29-2.41-3.2ZM59.83,9.23c1.68.58,3.01,1.67,4,3.28.98,1.61,1.5,3.3,1.55,5.08.05,1.82-.41,3.55-1.37,5.18-.96,1.63-2.28,2.76-3.96,3.38,1.34-1.15,2.45-2.51,3.31-4.07.86-1.56,1.29-3.04,1.29-4.43s-.47-2.93-1.4-4.46c-.94-1.54-2.08-2.85-3.42-3.96Z"/>
      <path class="cls-1" d="M64.58,40.19c-1.39-1.2-2.26-2.78-2.59-4.75-.34-1.97-.17-3.82.5-5.54.67-1.78,1.79-3.28,3.35-4.5,1.56-1.22,3.25-1.81,5.08-1.76-1.73.62-3.32,1.51-4.79,2.66-1.46,1.15-2.46,2.42-2.99,3.82-.53,1.39-.65,3.01-.36,4.86.29,1.85.89,3.59,1.8,5.22ZM69.83,56.9c-1.54.05-2.95-.43-4.25-1.44-1.29-1.01-2.21-2.23-2.74-3.67-.53-1.39-.65-2.89-.36-4.5.29-1.61,1.01-2.92,2.16-3.92-.72,1.34-1.2,2.76-1.44,4.25-.24,1.49-.14,2.81.29,3.96.43,1.15,1.24,2.21,2.41,3.17,1.18.96,2.48,1.68,3.92,2.16ZM71.92,50.35c-1.39-.34-2.65-1.09-3.78-2.27-1.13-1.18-1.79-2.48-1.98-3.92-.14-1.39.19-2.8,1.01-4.21.82-1.42,1.85-2.44,3.1-3.06-.96,1.01-1.63,2.16-2.02,3.46-.38,1.3-.5,2.5-.36,3.6.14,1.15.55,2.3,1.22,3.46.67,1.15,1.61,2.14,2.81,2.95ZM70.48,35.73c-.77-.96-1.22-2.15-1.37-3.56-.14-1.42.1-2.63.72-3.64.67-1.01,1.67-1.76,2.99-2.27,1.32-.5,2.58-.61,3.78-.32-1.2.14-2.26.56-3.17,1.26-.91.7-1.61,1.45-2.09,2.27-.53.82-.9,1.78-1.12,2.88-.22,1.1-.13,2.23.25,3.38ZM82.58,58.34c-1.06.77-2.33,1.19-3.82,1.26-1.49.07-2.76-.25-3.82-.97-1.06-.77-1.83-1.86-2.3-3.28-.48-1.42-.55-2.75-.22-4,.14,1.3.55,2.45,1.22,3.46.67,1.01,1.42,1.8,2.23,2.38.86.58,1.88,1,3.06,1.26,1.18.26,2.39.23,3.64-.11ZM77.54,25.29c.05-1.01.41-2.03,1.08-3.06.67-1.03,1.49-1.69,2.45-1.98,1.01-.29,2.06-.2,3.17.25,1.1.46,1.97,1.09,2.59,1.91-.86-.53-1.76-.8-2.7-.83-.94-.02-1.79.08-2.56.32-.77.24-1.54.62-2.3,1.15-.77.53-1.34,1.27-1.73,2.23ZM95.82,58.41c-.48,1.3-1.36,2.42-2.63,3.38-1.27.96-2.6,1.44-4,1.44-1.39-.05-2.72-.55-4-1.51-1.27-.96-2.15-2.09-2.63-3.38.91,1.06,1.97,1.84,3.17,2.34,1.2.5,2.35.78,3.46.83,1.1,0,2.26-.25,3.46-.76,1.2-.5,2.26-1.28,3.17-2.34ZM85.46,35.58c.09-.48.29-.98.58-1.51-.14-.19-.26-.38-.36-.58.14.14.29.29.43.43.33-.58.74-1.07,1.22-1.48.48-.41.98-.64,1.51-.68.67-.14,1.37-.02,2.09.36.72.38,1.32.84,1.8,1.37.1-.1.19-.22.29-.36-.05.19-.1.36-.14.5.14.24.29.46.43.65-.19-.14-.38-.26-.58-.36-.34.62-.79,1.19-1.37,1.69s-1.2.76-1.87.76c-.58.05-1.15-.11-1.73-.47-.58-.36-1.06-.8-1.44-1.33-.34.29-.62.62-.86,1.01ZM86.9,49.98c.05-.24.12-.46.22-.65-.34-.05-.65-.14-.94-.29.38.05.74,0,1.08-.14.72-1.68,1.85-2.85,3.38-3.53.19-.48.26-.98.22-1.51.19.38.33.82.43,1.3.19-.05.41-.1.65-.14h.58c-.24-.38-.43-.77-.58-1.15.38.48.84.86,1.37,1.15.91.19,1.8.58,2.66,1.15.53.1,1.05.14,1.58.14.91,0,1.88-.18,2.92-.54,1.03-.36,1.91-1,2.63-1.91-.38,1.06-1.08,2-2.09,2.84-1.01.84-2.06,1.28-3.17,1.33.05.14.12.29.22.43-.14-.14-.31-.29-.5-.43-1.2,0-2.35-.43-3.46-1.3-.67-.1-1.32-.1-1.94,0-.29.05-.55.1-.79.14-.1.67-.31,1.18-.65,1.51-.38.43-.89.72-1.51.86s-1.25.17-1.87.07c-.14.19-.29.41-.43.65ZM89.13,33.42c-.38.1-.78.21-1.19.32-.41.12-.8.3-1.19.54.43.19.88.31,1.33.36.46.05.9.05,1.33,0,.53,0,1.06-.06,1.58-.18.53-.12,1.01-.35,1.44-.68-.53-.29-1.08-.43-1.66-.43s-1.13.02-1.66.07ZM87.98,22.34c.72-1.1,1.78-1.99,3.17-2.66,1.39-.67,2.76-.89,4.1-.65,1.3.29,2.46,1.02,3.49,2.2,1.03,1.18,1.64,2.44,1.84,3.78-.67-1.2-1.52-2.16-2.56-2.88-1.03-.72-2.08-1.18-3.13-1.37-1.06-.24-2.21-.24-3.46,0-1.25.24-2.4.77-3.46,1.58ZM111.52,54.59c.38,1.73.13,3.46-.76,5.18s-2.1,3.07-3.63,4.03c-1.54.91-3.27,1.39-5.18,1.44-1.92.05-3.6-.5-5.04-1.66,1.73.58,3.49.84,5.29.79,1.8-.05,3.32-.46,4.57-1.22,1.2-.77,2.23-1.94,3.1-3.53s1.42-3.26,1.66-5.04ZM105.83,53.08c.19,1.06.06,2.17-.4,3.35-.46,1.18-1.14,2.05-2.05,2.63-.96.53-2.06.68-3.31.47-1.25-.22-2.28-.66-3.1-1.33,1.01.34,1.99.42,2.95.25.96-.17,1.82-.47,2.59-.9.72-.43,1.4-1.02,2.05-1.76.65-.74,1.07-1.64,1.26-2.7ZM98.63,18.31c1.2-.86,2.6-1.24,4.21-1.12,1.61.12,3.01.61,4.21,1.48,1.25.86,2.17,2.04,2.77,3.53.6,1.49.71,2.95.32,4.39-.1-1.49-.46-2.9-1.08-4.25-.62-1.34-1.44-2.38-2.45-3.1-.96-.67-2.17-1.09-3.64-1.26-1.46-.17-2.92-.06-4.36.32ZM99.21,48.47c.62-.58,1.45-1.01,2.48-1.3,1.03-.29,1.93-.24,2.7.14.77.38,1.34,1.07,1.73,2.05.38.98.53,1.91.43,2.77-.19-.86-.58-1.55-1.15-2.05-.58-.5-1.18-.9-1.8-1.19-.62-.33-1.32-.58-2.09-.72s-1.54-.05-2.3.29ZM101.51,25.58c1.06-.34,2.22-.34,3.49,0,1.27.34,2.24.94,2.92,1.8.62.86.91,1.96.86,3.28-.05,1.32-.36,2.44-.94,3.35.24-1.06.22-2.08-.07-3.06-.29-.98-.72-1.84-1.3-2.56-.53-.67-1.21-1.3-2.05-1.87-.84-.58-1.81-.89-2.92-.94ZM108.14,35.08c.72.72,1.25,1.66,1.58,2.81.33,1.15.31,2.18-.07,3.1-.43.91-1.19,1.63-2.27,2.16-1.08.53-2.12.77-3.13.72.96-.29,1.75-.77,2.38-1.44.62-.67,1.1-1.37,1.44-2.09.33-.77.55-1.61.65-2.52.1-.91-.1-1.82-.58-2.74Z"/>
      <path class="cls-1" d="M124.12,35.73c-1.11.05-2.22-.23-3.35-.83-1.13-.6-1.91-1.4-2.34-2.41-.43-1.01-.47-2.12-.11-3.35.36-1.22.95-2.2,1.76-2.92-.48.96-.7,1.93-.65,2.92.05.98.24,1.88.58,2.7.33.77.84,1.52,1.51,2.27.67.74,1.54,1.28,2.59,1.62ZM126.06,54.16c-1.54.05-2.98-.41-4.32-1.37-1.34-.96-2.3-2.14-2.88-3.53-.62-1.44-.82-2.98-.58-4.61.24-1.63.94-2.98,2.09-4.03-.72,1.39-1.17,2.84-1.33,4.36-.17,1.51-.01,2.84.47,4,.48,1.1,1.32,2.12,2.52,3.06s2.54,1.64,4.03,2.12ZM119.66,25.14c0-.72.23-1.49.68-2.3.46-.82,1.04-1.34,1.76-1.58.67-.19,1.43-.08,2.27.32.84.41,1.48.9,1.91,1.48-.62-.38-1.25-.54-1.87-.47-.62.07-1.22.18-1.8.32-.58.19-1.14.44-1.69.76-.55.31-.97.8-1.26,1.48ZM120.66,17.66c.62-1.44,1.67-2.54,3.13-3.31,1.46-.77,2.99-1.1,4.57-1.01,1.54.1,2.99.62,4.36,1.58,1.37.96,2.27,2.19,2.7,3.67-.91-1.25-2.02-2.29-3.31-3.13-1.3-.84-2.57-1.31-3.82-1.4-1.25-.1-2.57.2-3.96.9-1.39.7-2.62,1.6-3.67,2.7ZM128.87,77.42c-1.44,0-2.77-.49-4-1.48-1.22-.98-2.08-2.15-2.56-3.49-.48-1.34-.56-2.78-.25-4.32.31-1.54,1.02-2.76,2.12-3.67-.72,1.25-1.2,2.58-1.44,4-.24,1.42-.17,2.68.22,3.78.43,1.06,1.19,2.06,2.27,3.02,1.08.96,2.29,1.68,3.64,2.16ZM128.01,44.94c-.96.05-1.95-.18-2.95-.68-1.01-.5-1.68-1.19-2.02-2.05-.38-.86-.4-1.84-.04-2.92.36-1.08.88-1.93,1.55-2.56-.43.86-.6,1.7-.5,2.52.1.82.29,1.58.58,2.3.29.67.7,1.33,1.22,1.98.53.65,1.25,1.12,2.16,1.4ZM132.33,55.17c-1.15.1-2.33-.19-3.53-.86-1.2-.67-2.04-1.54-2.52-2.59-.43-1.1-.47-2.31-.11-3.64.36-1.32.97-2.36,1.84-3.13-.53,1.01-.77,2.05-.72,3.13.05,1.08.24,2.05.58,2.92.38.86.95,1.69,1.69,2.48s1.67,1.36,2.77,1.69ZM128.66,67.84c-1.01-.82-1.74-1.93-2.2-3.35-.46-1.42-.47-2.75-.04-4,.43-1.2,1.27-2.21,2.52-3.02,1.25-.82,2.52-1.22,3.82-1.22-1.2.43-2.2,1.1-2.99,2.02-.79.91-1.38,1.85-1.76,2.81-.34,1.01-.48,2.11-.43,3.31.05,1.2.41,2.35,1.08,3.46ZM127.43,23.06c.86-.53,1.89-.82,3.1-.86,1.2-.05,2.21.24,3.02.86.77.62,1.28,1.52,1.55,2.7.26,1.18.23,2.24-.11,3.2,0-1.01-.26-1.9-.79-2.66-.53-.77-1.11-1.39-1.73-1.87-.62-.53-1.37-.94-2.23-1.22-.86-.29-1.8-.34-2.81-.14ZM133.19,72.02c-.48.38-1.12.67-1.91.86-.79.19-1.45.12-1.98-.22-.53-.29-.88-.83-1.04-1.62-.17-.79-.18-1.5-.04-2.12.05.62.29,1.1.72,1.44.43.34.86.62,1.29.86.38.29.83.54,1.33.76s1.04.23,1.62.04ZM143.85,64.38c.43,1.2.47,2.52.11,3.96-.36,1.44-1.02,2.57-1.98,3.38-1.01.82-2.26,1.24-3.74,1.26-1.49.02-2.78-.3-3.89-.97,1.25.24,2.45.19,3.6-.14,1.15-.34,2.13-.84,2.95-1.51.77-.62,1.45-1.46,2.05-2.52.6-1.06.9-2.21.9-3.46ZM138.74,39.26c-.14-.33-.26-.72-.36-1.15l-.07.07.07-.14c-.05-.48-.04-.97.04-1.48.07-.5.23-.92.47-1.26-.05-.58-.17-1.18-.36-1.8-.29-.67-.67-1.34-1.15-2.02-.48-.67-1.13-1.15-1.94-1.44.91,0,1.85.26,2.81.79.96.53,1.58,1.22,1.87,2.09.19.48.24,1.01.14,1.58.53-.1,1.07-.1,1.62,0,.55.1,1.02.24,1.4.43-.62-.1-1.18.02-1.66.36-.48.34-.91.67-1.3,1.01-.38.38-.76.8-1.12,1.26-.36.46-.52,1.02-.47,1.69ZM143.71,33.86c-.91-.86-1.55-1.99-1.91-3.38-.36-1.39-.28-2.64.25-3.74.48-1.15,1.36-2.06,2.63-2.74,1.27-.67,2.53-.98,3.78-.94-1.2.38-2.21.97-3.02,1.76-.82.79-1.42,1.65-1.8,2.56-.38.91-.61,1.94-.68,3.1-.07,1.15.18,2.28.76,3.38ZM148.17,54.38c.77.67,1.32,1.6,1.66,2.77.34,1.18.31,2.24-.07,3.2-.43.91-1.19,1.64-2.27,2.2-1.08.55-2.12.8-3.13.76.96-.29,1.75-.78,2.38-1.48.62-.7,1.1-1.43,1.44-2.2.29-.72.48-1.55.58-2.48s-.1-1.86-.58-2.77ZM152.42,44.66c.72.67,1.25,1.57,1.58,2.7.34,1.13.31,2.15-.07,3.06-.38.91-1.12,1.63-2.2,2.16-1.08.53-2.1.77-3.06.72.91-.29,1.67-.77,2.27-1.44.6-.67,1.07-1.37,1.4-2.09.29-.72.48-1.54.58-2.45.09-.91-.07-1.8-.51-2.66ZM149.61,23.06c.43-1.15,1.2-2.15,2.3-2.99,1.1-.84,2.28-1.26,3.53-1.26s2.35.44,3.46,1.33c1.1.89,1.85,1.91,2.23,3.06-.77-.96-1.67-1.64-2.7-2.05-1.03-.41-2.05-.61-3.06-.61s-1.97.19-3.02.58c-1.06.38-1.97,1.03-2.74,1.94ZM156.02,49.84c1.15,1.1,1.85,2.51,2.09,4.21.24,1.7.05,3.28-.58,4.72-.67,1.49-1.71,2.72-3.1,3.71-1.39.98-2.88,1.43-4.46,1.33,1.54-.43,2.94-1.13,4.21-2.09,1.27-.96,2.15-2.04,2.63-3.24.53-1.15.71-2.52.54-4.1-.17-1.58-.61-3.1-1.33-4.54ZM156.59,34.87c.72.72,1.25,1.64,1.58,2.77.33,1.13.31,2.15-.07,3.06-.38.91-1.12,1.63-2.2,2.16-1.08.53-2.1.77-3.06.72.96-.29,1.73-.77,2.3-1.44.58-.67,1.03-1.37,1.37-2.09.33-.77.54-1.6.61-2.48.07-.89-.11-1.79-.54-2.7ZM153.06,17.66c1.06-1.15,2.41-1.85,4.07-2.09,1.66-.24,3.21-.05,4.64.58,1.44.62,2.65,1.61,3.63,2.95.98,1.34,1.43,2.81,1.33,4.39-.43-1.49-1.13-2.85-2.09-4.1-.96-1.25-2.02-2.11-3.17-2.59-1.15-.48-2.5-.64-4.03-.47-1.54.17-3,.61-4.39,1.33ZM161.13,24.35c.77.77,1.33,1.76,1.69,2.99.36,1.22.32,2.34-.11,3.35s-1.21,1.8-2.34,2.38c-1.13.58-2.24.84-3.35.79,1.05-.33,1.92-.86,2.59-1.58.67-.72,1.18-1.49,1.51-2.3.34-.77.54-1.66.61-2.66.07-1.01-.13-1.99-.61-2.95Z"/>
      <path class="cls-1" d="M169.41,44.94c-1.77-.67-3.19-1.88-4.25-3.64-1.05-1.75-1.58-3.59-1.58-5.51s.53-3.7,1.58-5.47c1.06-1.78,2.47-2.98,4.25-3.6-1.49,1.2-2.71,2.64-3.67,4.32-.96,1.68-1.44,3.27-1.44,4.75s.48,3.13,1.44,4.79c.96,1.66,2.19,3.11,3.67,4.36ZM174.81,36.45c-1.25-.48-2.35-1.33-3.31-2.56-.96-1.22-1.44-2.51-1.44-3.85s.48-2.7,1.44-3.92c.96-1.22,2.06-2.08,3.31-2.56-1.06.86-1.82,1.88-2.3,3.06-.48,1.18-.72,2.32-.72,3.42s.24,2.17.72,3.35c.48,1.18,1.25,2.2,2.3,3.06ZM174.81,53.51c-.77-.82-1.29-1.85-1.58-3.1-.29-1.25-.19-2.38.29-3.38.48-1.01,1.31-1.78,2.48-2.3,1.17-.53,2.29-.74,3.35-.65-1.06.29-1.95.78-2.66,1.48-.72.7-1.27,1.45-1.66,2.27-.38.77-.62,1.66-.72,2.66-.1,1.01.07,2.02.5,3.02ZM174.81,19.24c-.72-.77-1.22-1.78-1.51-3.02-.29-1.25-.19-2.35.29-3.31.48-.96,1.29-1.7,2.45-2.23,1.15-.53,2.26-.72,3.31-.58-1.01.24-1.87.71-2.59,1.4-.72.7-1.27,1.43-1.66,2.2-.38.77-.64,1.65-.76,2.63-.12.98.04,1.96.47,2.92ZM182.8,58.34c-.77.62-1.74,1.02-2.92,1.19s-2.17.01-2.99-.47c-.82-.53-1.42-1.34-1.8-2.45-.38-1.1-.48-2.14-.29-3.1.14.96.5,1.78,1.08,2.45.58.67,1.2,1.2,1.87,1.58.67.43,1.45.76,2.34.97.89.22,1.79.16,2.7-.18ZM187.05,39.04c-.58,1.15-1.5,2.11-2.77,2.88-1.27.77-2.56,1.08-3.85.94-1.3-.14-2.48-.74-3.56-1.8-1.08-1.06-1.76-2.21-2.05-3.46.72,1.1,1.61,1.94,2.66,2.52,1.06.58,2.11.91,3.17,1.01,1.01.14,2.1.06,3.28-.25,1.17-.31,2.22-.92,3.13-1.84ZM179.05,4.7c1.1-1.3,2.54-2.14,4.32-2.52,1.78-.38,3.48-.29,5.11.29,1.58.58,2.96,1.56,4.14,2.95,1.18,1.39,1.76,2.95,1.76,4.68-.58-1.63-1.43-3.08-2.55-4.36-1.13-1.27-2.32-2.15-3.56-2.63-1.3-.43-2.79-.49-4.46-.18-1.68.31-3.26.9-4.75,1.76ZM180.5,10.1c.77-.67,1.75-1.13,2.95-1.37,1.2-.24,2.23-.12,3.1.36.91.48,1.6,1.28,2.05,2.41.46,1.13.61,2.2.47,3.2-.19-1.01-.61-1.85-1.26-2.52-.65-.67-1.33-1.2-2.05-1.58-.72-.38-1.54-.66-2.45-.83-.91-.17-1.85-.06-2.81.32ZM180.5,44.08c.81-.67,1.84-1.09,3.06-1.26,1.22-.17,2.29.01,3.21.54.91.53,1.57,1.38,1.98,2.56.41,1.18.52,2.27.32,3.28-.14-1.01-.53-1.88-1.15-2.63-.62-.74-1.3-1.33-2.02-1.76-.72-.43-1.55-.74-2.48-.94-.94-.19-1.91-.12-2.92.22ZM194.46,53.8c.53,1.54.49,3.14-.11,4.82-.6,1.68-1.53,3.05-2.77,4.1-1.3,1.01-2.82,1.64-4.57,1.91-1.75.26-3.35-.04-4.79-.9,1.63.34,3.26.36,4.9.07,1.63-.29,2.95-.84,3.96-1.66,1.05-.86,1.87-2.06,2.45-3.6.58-1.54.89-3.12.94-4.75ZM189.06,50.35c.62.82,1.01,1.81,1.15,2.99.14,1.18-.05,2.17-.58,2.99-.58.86-1.43,1.48-2.55,1.84-1.13.36-2.17.42-3.13.18.96-.14,1.8-.5,2.52-1.08.72-.58,1.3-1.2,1.73-1.87.38-.62.7-1.38.94-2.27.24-.89.22-1.81-.07-2.77ZM189.06,28.17c1.06.48,1.96,1.27,2.7,2.38.74,1.1,1.07,2.23.97,3.38-.1,1.15-.6,2.22-1.51,3.2-.91.98-1.92,1.62-3.02,1.91.91-.67,1.6-1.49,2.05-2.45.46-.96.71-1.9.76-2.81.1-.91,0-1.88-.29-2.92-.29-1.03-.84-1.93-1.66-2.7ZM189.06,15.86c1.1.38,2.09,1.12,2.95,2.2.86,1.08,1.29,2.2,1.29,3.35s-.43,2.33-1.29,3.38c-.87,1.06-1.85,1.8-2.95,2.23.91-.77,1.56-1.66,1.95-2.66.38-1.01.58-1.99.58-2.95,0-.91-.19-1.88-.58-2.92-.38-1.03-1.03-1.91-1.95-2.63ZM194.39,10.1c1.49.53,2.69,1.52,3.6,2.99.91,1.46,1.37,2.99,1.37,4.57s-.45,3.11-1.33,4.57c-.89,1.46-2.08,2.48-3.56,3.06,1.2-1.06,2.2-2.27,2.99-3.64.79-1.37,1.19-2.7,1.19-4s-.39-2.63-1.19-4c-.79-1.37-1.81-2.56-3.06-3.56Z"/>
      <path class="cls-1" d="M221.25,23.85c-1.68-.96-2.89-2.44-3.64-4.43-.74-1.99-.92-3.95-.54-5.87.34-1.97,1.2-3.74,2.59-5.33s3.05-2.52,4.97-2.81c-1.68.96-3.17,2.18-4.46,3.67-1.3,1.49-2.09,3.02-2.38,4.61-.29,1.54-.1,3.24.58,5.11.67,1.87,1.63,3.55,2.88,5.04ZM229.81,63.74c-1.39.43-2.83.37-4.32-.18-1.49-.55-2.69-1.43-3.6-2.63-.91-1.15-1.45-2.52-1.62-4.1-.17-1.58.16-3,.97-4.25-.34,1.44-.4,2.89-.18,4.36.21,1.46.68,2.65,1.4,3.56.72.96,1.75,1.73,3.1,2.3,1.34.58,2.76.89,4.25.94ZM226.65,53.44c-1.2-.43-2.26-1.25-3.17-2.45-.91-1.2-1.37-2.45-1.37-3.74s.46-2.53,1.37-3.71c.91-1.18,1.97-1.98,3.17-2.41-1.01.82-1.73,1.79-2.16,2.92-.43,1.13-.65,2.2-.65,3.2s.22,2.15.65,3.28c.43,1.13,1.15,2.1,2.16,2.92ZM226.65,39.98c-1.15-.43-2.17-1.21-3.06-2.34-.89-1.13-1.33-2.32-1.33-3.56s.44-2.44,1.33-3.56c.89-1.13,1.91-1.91,3.06-2.34-.96.82-1.64,1.75-2.05,2.81-.41,1.06-.61,2.09-.61,3.1s.2,2.04.61,3.1c.41,1.06,1.09,1.99,2.05,2.81ZM226.65,27.02c-.96-.34-1.84-.97-2.63-1.91-.79-.94-1.19-1.91-1.19-2.92s.4-2.05,1.19-2.99c.79-.94,1.67-1.57,2.63-1.91-.77.62-1.31,1.38-1.62,2.27-.31.89-.47,1.76-.47,2.63,0,.82.15,1.67.47,2.56.31.89.85,1.64,1.62,2.27ZM226.65,16.14c-.48-.53-.85-1.24-1.12-2.12-.26-.89-.23-1.64.11-2.27.33-.62.94-1.08,1.8-1.37.87-.29,1.66-.38,2.38-.29-.72.14-1.27.47-1.66.97-.38.5-.72,1-1.01,1.48-.24.53-.46,1.09-.65,1.69-.19.6-.14,1.24.14,1.91ZM236.37,58.34c-.72.82-1.69,1.43-2.92,1.84-1.22.41-2.34.42-3.35.04-1.06-.38-1.9-1.14-2.52-2.27-.62-1.13-.94-2.24-.94-3.35.33,1.06.89,1.91,1.66,2.56.77.65,1.56,1.12,2.38,1.4.82.34,1.73.52,2.74.54,1.01.02,1.99-.23,2.95-.76ZM230.97,10.1c.33-.96.98-1.84,1.94-2.63.96-.79,1.94-1.19,2.95-1.19s1.99.4,2.95,1.19c.96.79,1.61,1.67,1.94,2.63-.67-.77-1.45-1.31-2.34-1.62-.89-.31-1.74-.47-2.56-.47s-1.67.16-2.55.47c-.89.31-1.67.85-2.34,1.62ZM246.95,58.34c-.34.91-.96,1.75-1.87,2.52-.91.77-1.85,1.15-2.81,1.15s-1.97-.38-2.88-1.15c-.91-.77-1.54-1.61-1.87-2.52.62.77,1.37,1.28,2.23,1.55.86.26,1.7.4,2.52.4.77,0,1.58-.13,2.45-.4.86-.26,1.61-.78,2.23-1.55ZM241.91,10.1c.43-1.15,1.22-2.17,2.38-3.06,1.15-.89,2.33-1.33,3.53-1.33s2.45.44,3.6,1.33c1.15.89,1.92,1.93,2.3,3.13-.77-.96-1.69-1.66-2.77-2.09s-2.12-.65-3.13-.65-1.98.2-3.06.61c-1.08.41-2.03,1.09-2.84,2.05ZM247.89,29.03c-.19-.34-.36-.72-.5-1.15-.05.43-.17.82-.36,1.15.05-.67-.1-1.25-.43-1.73-.34-.48-.7-.91-1.08-1.3-.1-.1-.19-.17-.29-.22-.62-.29-1.18-.67-1.66-1.15-.34-.1-.7-.12-1.08-.07.19-.1.41-.19.65-.29-.24-.29-.46-.58-.65-.86.38.29.81.53,1.29.72.53-.05,1.06-.04,1.58.04.53.07.94.23,1.22.47h.72c.1-.38.26-.72.5-1.01.43-.58,1.02-.98,1.76-1.22.74-.24,1.5-.34,2.27-.29.19-.19.36-.43.5-.72-.05.24-.12.5-.21.79.33,0,.65.05.94.14-.38.05-.72.12-1.01.22-.34.86-.85,1.64-1.55,2.34-.7.7-1.45,1.14-2.27,1.33-.19.38-.32.82-.4,1.3-.07.48-.06.98.04,1.51ZM242.49,43.22c.24-.1.5-.17.79-.22-.29-.29-.55-.6-.79-.94.53.38,1.1.7,1.73.94.57,0,1.08.1,1.51.29.62.05,1.25.02,1.87-.07.14-.33.29-.65.43-.94.43-.62,1.06-1.1,1.87-1.44.81-.33,1.63-.5,2.45-.5.14-.19.29-.41.43-.65-.05.19-.1.41-.14.65.33,0,.65.05.94.14-.38.05-.74.12-1.08.22-.29.91-.77,1.75-1.44,2.52-.67.77-1.44,1.27-2.3,1.51-.19.53-.32,1.07-.4,1.62-.07.55-.01,1.14.18,1.76-.67-.91-1.03-1.99-1.08-3.24h-.36c.1.53.08,1.09-.04,1.69-.12.6-.3,1.12-.54,1.55.14-.67.06-1.26-.25-1.76s-.64-.95-.97-1.33c-.34-.43-.72-.84-1.15-1.22-.43-.38-.98-.58-1.66-.58ZM260.2,57.54c-.38,1.2-1.12,2.29-2.2,3.28-1.08.98-2.27,1.5-3.56,1.55-1.25.1-2.48-.26-3.71-1.08-1.22-.82-2.1-1.8-2.63-2.95.91.91,1.92,1.55,3.02,1.91,1.11.36,2.19.52,3.24.47,1.01-.1,2.04-.4,3.1-.9,1.05-.5,1.97-1.26,2.73-2.27ZM251.2,22.91c-.38.19-.77.46-1.15.79.43-.24.81-.5,1.15-.79ZM251.77,41.06c-.53.29-1.03.7-1.51,1.22.58-.33,1.08-.74,1.51-1.22ZM253.79,4.77c1.3-1.49,2.96-2.42,5.01-2.81,2.04-.38,3.99-.22,5.87.5,1.82.67,3.38,1.82,4.68,3.46,1.3,1.63,1.94,3.41,1.94,5.33-.67-1.82-1.62-3.5-2.84-5.04-1.22-1.54-2.58-2.57-4.07-3.1-1.49-.53-3.19-.62-5.11-.29-1.92.34-3.74.98-5.47,1.94ZM254.87,10.24c.58-.86,1.43-1.56,2.56-2.09,1.13-.53,2.17-.65,3.13-.36,1.01.24,1.87.85,2.59,1.84.72.98,1.13,2,1.22,3.06-.43-.96-1.04-1.69-1.84-2.2-.79-.5-1.6-.85-2.41-1.04-.77-.19-1.62-.26-2.55-.22-.94.05-1.84.38-2.7,1.01ZM274.17,54.16c.34,1.82.02,3.61-.94,5.36-.96,1.75-2.26,3.11-3.89,4.07-1.58.96-3.38,1.44-5.4,1.44s-3.74-.6-5.18-1.8c1.78.62,3.6.94,5.47.94s3.46-.38,4.75-1.15c1.29-.77,2.4-1.98,3.31-3.64.91-1.66,1.54-3.4,1.87-5.22ZM267.18,54.16c.05.72-.06,1.5-.32,2.34-.26.84-.71,1.43-1.33,1.76-.62.29-1.36.3-2.2.04-.84-.26-1.53-.61-2.05-1.04.62.24,1.24.28,1.84.11.6-.17,1.14-.4,1.62-.68.48-.24.96-.55,1.44-.94.48-.38.82-.91,1.01-1.58ZM270.21,22.41c.87.86,1.44,1.99,1.73,3.38.29,1.39.17,2.62-.36,3.67-.58,1.1-1.5,1.96-2.77,2.56-1.27.6-2.51.85-3.71.76,1.2-.29,2.21-.82,3.02-1.58.82-.77,1.44-1.58,1.87-2.45.43-.86.7-1.86.79-2.99.1-1.13-.1-2.24-.58-3.35ZM265.17,33.86c1.25-.24,2.56-.08,3.92.47,1.37.55,2.39,1.38,3.06,2.48.67,1.1.91,2.4.72,3.89-.19,1.49-.7,2.71-1.51,3.67.43-1.2.55-2.39.36-3.56-.19-1.18-.55-2.22-1.08-3.13-.53-.86-1.26-1.66-2.2-2.38-.94-.72-2.03-1.2-3.28-1.44ZM265.31,13.26c.96-.19,2-.1,3.13.29,1.13.38,1.93,1.01,2.41,1.87.48.82.62,1.8.43,2.95s-.6,2.11-1.22,2.88c.33-.91.41-1.8.21-2.66-.19-.86-.5-1.63-.94-2.3-.38-.67-.9-1.31-1.55-1.91-.65-.6-1.48-.97-2.48-1.12ZM271.29,45.52c.67.72,1.16,1.67,1.48,2.84.31,1.18.25,2.22-.18,3.13-.43.91-1.2,1.61-2.3,2.09-1.1.48-2.14.67-3.1.58.96-.24,1.75-.7,2.38-1.37.62-.67,1.1-1.37,1.44-2.09.38-.72.62-1.54.72-2.45.1-.91-.05-1.82-.43-2.74ZM275.75,38.18c1.49.67,2.62,1.76,3.38,3.28.77,1.51,1.08,3.08.94,4.72-.1,1.58-.65,3.07-1.66,4.46-1.01,1.39-2.28,2.3-3.82,2.74,1.3-.91,2.39-2.03,3.28-3.35.89-1.32,1.38-2.63,1.48-3.92.1-1.3-.19-2.66-.86-4.1-.67-1.44-1.58-2.71-2.74-3.82Z"/>
      <path class="cls-1" d="M278.85,45.66c-1.58-.86-2.72-2.2-3.42-4s-.9-3.59-.61-5.36c.29-1.78,1.06-3.4,2.3-4.86,1.25-1.46,2.76-2.36,4.54-2.7-1.58.91-2.95,2.06-4.1,3.46-1.15,1.39-1.82,2.81-2.02,4.25-.24,1.44-.05,3,.58,4.68.62,1.68,1.54,3.19,2.74,4.54ZM287.85,62.58c-1.68.43-3.37.24-5.08-.58-1.7-.82-3.04-1.94-4-3.38-1.01-1.44-1.56-3.1-1.66-4.97-.1-1.87.38-3.53,1.44-4.97-.48,1.68-.66,3.4-.54,5.15.12,1.75.56,3.2,1.33,4.36.77,1.2,1.94,2.18,3.53,2.95,1.58.77,3.24,1.25,4.97,1.44ZM285.18,53.37c-1.06-.67-1.91-1.68-2.56-3.02-.65-1.34-.85-2.64-.61-3.89.29-1.25.99-2.36,2.12-3.35,1.13-.98,2.31-1.55,3.56-1.69-1.11.58-1.99,1.37-2.66,2.38-.67,1.01-1.11,2.02-1.3,3.02-.24,1.01-.25,2.1-.04,3.28.21,1.18.71,2.27,1.48,3.28ZM294.04,58.84c-.72.67-1.66,1.13-2.81,1.37-1.15.24-2.16.12-3.02-.36-.86-.48-1.51-1.27-1.94-2.38-.43-1.1-.58-2.14-.43-3.1.19.96.6,1.76,1.22,2.41.62.65,1.3,1.16,2.02,1.55.67.38,1.44.66,2.3.83.86.17,1.75.06,2.66-.32ZM290.29,32.56c-.53,0-1.13-.14-1.8-.43s-1.1-.67-1.29-1.15c-.19-.53-.11-1.12.25-1.76.36-.65.73-1.14,1.12-1.48-.24.48-.3.94-.18,1.37.12.43.25.86.4,1.3.19.38.37.79.54,1.22s.49.74.97.94ZM288.56,27.74c-.14-.48-.19-1.08-.14-1.8.05-.72.29-1.22.72-1.51.38-.33.94-.43,1.66-.29.72.14,1.27.36,1.66.65-.48-.1-.9-.01-1.26.25-.36.26-.71.52-1.04.76-.34.24-.67.49-1.01.76-.34.26-.53.66-.58,1.19ZM288.71,40.77c.05-1.3.49-2.54,1.33-3.74.84-1.2,1.86-1.99,3.06-2.38l.14-.07c-.77-.58-1.37-1.25-1.8-2.02,1.05.86,2.23,1.49,3.53,1.87.53,0,1.08.1,1.66.29.72.05,1.44.02,2.16-.07.58-.1,1.15-.26,1.73-.5-.05-.91.17-1.68.65-2.3.38-.48.92-.83,1.62-1.04.7-.22,1.4-.3,2.12-.25.05-.1.07-.17.07-.22v.22c.38,0,.77.07,1.15.22-.48,0-.91.07-1.3.22-.57,1.97-1.78,3.48-3.6,4.54-.05.48-.02.94.07,1.37-.24-.29-.41-.65-.5-1.08-.48.24-.94.41-1.37.5.29.24.53.5.72.79-.43-.29-.89-.53-1.37-.72-1.06.14-2.14,0-3.24-.43-.67.05-1.32.17-1.94.36-.96.29-1.9.8-2.81,1.55-.91.74-1.61,1.72-2.09,2.92ZM293.53,24.28c.33-1.49,1.14-2.82,2.41-4,1.27-1.18,2.67-1.86,4.21-2.05,1.49-.19,2.99.13,4.5.97,1.51.84,2.63,1.93,3.35,3.28-1.1-1.01-2.35-1.73-3.74-2.16-1.39-.43-2.71-.58-3.96-.43-1.2.19-2.42.66-3.67,1.4-1.25.74-2.28,1.74-3.1,2.99ZM306.71,54.95c-.05,1.3-.47,2.56-1.26,3.78-.79,1.22-1.79,2.05-2.99,2.48-1.2.43-2.51.42-3.92-.04-1.42-.46-2.53-1.19-3.35-2.2,1.1.67,2.26,1.03,3.46,1.08,1.2.05,2.28-.1,3.24-.43.96-.33,1.88-.9,2.77-1.69s1.57-1.79,2.05-2.99ZM303.32,50.42c-.19-.1-.36-.19-.5-.29-.19.14-.41.29-.65.43.19-.19.34-.41.43-.65-.58-.38-1.06-.89-1.44-1.51-.38-.62-.55-1.22-.5-1.8.05-.72.43-1.39,1.15-2.02-.19-.24-.43-.43-.72-.58.33.05.67.14,1.01.29.58-.48,1.2-.82,1.87-1.01-.53.34-.91.82-1.15,1.44.43.24.8.54,1.12.9.31.36.49.76.54,1.19.1.53-.01,1.08-.32,1.66-.31.58-.71,1.08-1.19,1.51.1.14.22.29.36.43ZM302.53,32.92c-.1.1-.17.19-.22.29.82-.58,1.51-1.25,2.09-2.02-.38.24-.73.5-1.04.79-.31.29-.59.6-.83.94ZM302.39,46.74c-.05.43-.06.9-.04,1.4.02.5.15.97.39,1.4.14-.38.21-.79.18-1.22-.03-.43-.09-.84-.18-1.22,0-.19-.02-.4-.07-.61-.05-.22-.12-.42-.22-.61,0,.24-.03.53-.07.86ZM306.64,17.01c1.34-1.44,3.06-2.3,5.15-2.59s4.04-.02,5.87.79c1.82.77,3.35,1.99,4.57,3.67,1.22,1.68,1.79,3.5,1.69,5.47-.57-1.87-1.45-3.6-2.63-5.18-1.18-1.58-2.48-2.69-3.92-3.31-1.44-.62-3.14-.82-5.11-.58-1.97.24-3.84.82-5.62,1.73ZM315.06,58.34c-.58.62-1.36,1.1-2.34,1.44-.98.34-1.86.36-2.63.07-.77-.34-1.37-.97-1.8-1.91s-.65-1.81-.65-2.63c.29.77.72,1.38,1.3,1.84.58.46,1.18.8,1.8,1.04.62.29,1.31.48,2.05.58.74.1,1.5-.05,2.27-.43ZM309.16,22.62c.62-.72,1.48-1.27,2.56-1.66,1.08-.38,2.08-.43,2.99-.14.91.34,1.64,1.02,2.2,2.05.55,1.03.83,2.03.83,2.99-.34-.91-.85-1.63-1.55-2.16-.7-.53-1.4-.94-2.12-1.22s-1.51-.46-2.38-.5c-.87-.05-1.71.17-2.52.65ZM322.48,52.29c.38.86.52,1.85.4,2.95-.12,1.1-.49,1.97-1.12,2.59-.67.62-1.56.96-2.66,1.01-1.11.05-2.09-.12-2.95-.5.91.1,1.74-.05,2.48-.43.74-.38,1.38-.82,1.91-1.3.53-.53,1-1.15,1.4-1.87.41-.72.59-1.54.54-2.45ZM327.88,52.58c.67,1.54.79,3.17.36,4.9s-1.25,3.19-2.45,4.39c-1.2,1.15-2.68,1.93-4.43,2.34-1.75.41-3.4.25-4.93-.47,1.68.14,3.33.01,4.97-.4,1.63-.41,2.93-1.07,3.89-1.98.96-.96,1.67-2.24,2.12-3.85.46-1.61.61-3.25.47-4.93ZM318.59,26.58c1.11-.05,2.23.26,3.38.94,1.15.67,1.94,1.51,2.38,2.52.38,1.06.38,2.22,0,3.49-.38,1.27-1.01,2.27-1.87,2.99.53-.96.78-1.96.76-2.99-.02-1.03-.21-1.98-.54-2.84-.29-.82-.78-1.62-1.48-2.41-.7-.79-1.57-1.36-2.63-1.69ZM322.48,37.67c1.34.48,2.5,1.37,3.46,2.66.96,1.3,1.44,2.66,1.44,4.1s-.48,2.74-1.44,4.03c-.96,1.3-2.11,2.18-3.46,2.66,1.1-.91,1.91-1.98,2.41-3.2s.76-2.39.76-3.49-.25-2.34-.76-3.56-1.31-2.29-2.41-3.2Z"/>
      <path class="cls-1" d="M331.76,35.66c-1.15-1.15-1.84-2.59-2.05-4.32-.22-1.73.04-3.34.76-4.82.67-1.49,1.73-2.71,3.17-3.67,1.44-.96,2.97-1.39,4.61-1.3-1.58.43-3.04,1.13-4.36,2.09-1.32.96-2.24,2.02-2.77,3.17-.58,1.2-.79,2.6-.65,4.21.14,1.61.58,3.16,1.29,4.64ZM337.6,48.04c-1.01-.34-1.93-.95-2.77-1.84-.84-.89-1.28-1.86-1.33-2.92-.05-1.01.29-2,1.01-2.99.72-.98,1.56-1.69,2.52-2.12-.77.72-1.27,1.54-1.51,2.45-.24.91-.34,1.78-.29,2.59.05.82.24,1.67.58,2.56.33.89.94,1.65,1.8,2.27ZM337.09,36.81c-1.01-1.01-1.66-2.32-1.94-3.92-.29-1.61-.12-3.04.5-4.28.62-1.25,1.66-2.24,3.1-2.99,1.44-.74,2.86-1.04,4.25-.9-1.39.34-2.58.94-3.56,1.8-.98.86-1.74,1.82-2.27,2.88-.48,1.01-.76,2.17-.83,3.49-.07,1.32.18,2.63.76,3.92ZM343,56.9c-.91.24-1.93.19-3.06-.14-1.13-.33-1.98-.91-2.55-1.73-.53-.82-.73-1.8-.61-2.95.12-1.15.47-2.14,1.04-2.95-.24.96-.24,1.86,0,2.7.24.84.58,1.6,1.01,2.27.43.67,1,1.28,1.69,1.84.7.55,1.52.88,2.48.97ZM352.07,64.46c-.62.96-1.54,1.67-2.74,2.12-1.2.46-2.35.56-3.46.32-1.15-.24-2.19-.82-3.1-1.73-.91-.91-1.44-1.94-1.58-3.1.53,1.06,1.24,1.96,2.12,2.7.89.74,1.79,1.21,2.7,1.4.91.19,1.92.13,3.03-.18,1.1-.31,2.11-.83,3.02-1.55ZM343.93,24.06c.14-.91.55-1.8,1.22-2.66.67-.86,1.46-1.39,2.38-1.58.91-.19,1.85-.01,2.81.54.96.55,1.68,1.24,2.16,2.05-.72-.58-1.49-.9-2.3-.97s-1.58-.04-2.3.11c-.72.14-1.44.41-2.16.79-.72.38-1.32.96-1.8,1.73ZM352.64,58.98c-.43.82-1.13,1.51-2.09,2.09-.96.58-1.9.79-2.81.65-.91-.19-1.72-.72-2.41-1.58-.7-.86-1.14-1.75-1.33-2.66.48.82,1.09,1.4,1.84,1.76.74.36,1.48.61,2.2.76.72.14,1.5.17,2.34.07.84-.1,1.59-.46,2.27-1.08ZM366.68,63.74c-.48,1.44-1.4,2.63-2.77,3.56-1.37.94-2.8,1.45-4.28,1.55-1.54.05-3.03-.32-4.46-1.12s-2.47-1.88-3.1-3.28c1.05,1.1,2.27,2,3.64,2.7,1.37.69,2.65,1.02,3.85.97,1.25-.1,2.51-.55,3.78-1.37,1.27-.82,2.39-1.83,3.35-3.02ZM352.86,45.02c.43-.72,1.1-1.36,2.02-1.91.91-.55,1.8-.76,2.66-.61.29.05.58.14.86.29-.43-.72-.65-1.44-.65-2.16v-.29c-.86.24-1.8.2-2.81-.11-1.01-.31-1.85-.78-2.52-1.4.91.38,1.81.53,2.7.43.89-.1,1.69-.31,2.41-.65.53-.24.98-.5,1.37-.79.34-.43.72-.82,1.15-1.15.43-.53.74-1.15.94-1.87.05.43.02.89-.07,1.37.19-.1.38-.19.58-.29-.24.19-.46.41-.65.65-.19.96-.6,1.8-1.22,2.52-.1.53-.14,1.06-.14,1.58,0,.82.14,1.66.43,2.52.29.86.82,1.63,1.58,2.3-.38-.14-.74-.34-1.08-.58.29.53.48,1.08.58,1.66-.43-.77-1-1.32-1.69-1.66-.7-.34-1.4-.58-2.12-.72-.67-.1-1.39-.11-2.16-.04-.77.07-1.49.37-2.16.9ZM353.65,22.48c.38-.77,1.01-1.45,1.87-2.05.87-.6,1.73-.85,2.59-.76.19,0,.36.05.5.14-.77-1.1-1.15-2.23-1.15-3.38,0-1.25.44-2.44,1.33-3.56.89-1.13,1.91-1.91,3.06-2.34-.96.82-1.64,1.75-2.05,2.81-.41,1.06-.61,2.09-.61,3.1s.21,2.04.61,3.1c.41,1.06,1.09,1.99,2.05,2.81-.19-.1-.38-.17-.57-.22.29.43.48.89.57,1.37-.48-.72-1.08-1.22-1.8-1.51-.72-.29-1.42-.48-2.09-.58-.72-.1-1.46-.08-2.23.04-.77.12-1.46.47-2.09,1.04ZM362.15,55.53c.05.91-.19,1.87-.72,2.88-.53,1.01-1.22,1.7-2.09,2.09-.86.33-1.84.32-2.92-.04s-1.93-.9-2.55-1.62c.81.48,1.64.67,2.48.58s1.62-.29,2.34-.58c.67-.24,1.34-.64,2.02-1.19.67-.55,1.15-1.26,1.44-2.12ZM356.82,8.15c.24-1.97,1.12-3.66,2.63-5.08,1.51-1.42,3.21-2.34,5.08-2.77,1.92-.43,3.86-.34,5.83.29,1.97.62,3.48,1.75,4.54,3.38-1.54-1.15-3.24-2.03-5.11-2.63-1.87-.6-3.58-.73-5.11-.4-1.49.38-2.94,1.25-4.36,2.59-1.42,1.34-2.58,2.88-3.49,4.61ZM362.36,9.45c.48-1.3,1.33-2.41,2.56-3.35s2.51-1.4,3.85-1.4,2.63.47,3.85,1.4c1.22.94,2.07,2.03,2.55,3.28-.86-1.01-1.87-1.75-3.02-2.23-1.15-.48-2.28-.72-3.38-.72s-2.17.24-3.35.72c-1.18.48-2.2,1.25-3.06,2.3ZM370.64,58.34c-.48.67-1.19,1.24-2.12,1.69-.94.46-1.81.56-2.63.32-.82-.24-1.5-.8-2.05-1.69-.55-.89-.85-1.74-.9-2.56.34.77.83,1.34,1.48,1.73.65.38,1.28.67,1.91.86.67.19,1.38.3,2.12.32.74.02,1.48-.2,2.2-.68ZM376.91,50.56c.58.77.94,1.74,1.08,2.92.14,1.18-.05,2.17-.58,2.99-.53.82-1.36,1.39-2.48,1.73-1.13.34-2.17.38-3.13.14.96-.1,1.79-.43,2.48-1.01.7-.58,1.26-1.18,1.69-1.8.43-.67.77-1.43,1.01-2.27.24-.84.21-1.74-.07-2.7ZM376.4,9.45c1.15.38,2.2,1.12,3.13,2.2.94,1.08,1.43,2.24,1.47,3.49.05,1.2-.34,2.39-1.15,3.56-.82,1.18-1.8,2-2.95,2.48.91-.82,1.55-1.78,1.91-2.88.36-1.1.52-2.14.47-3.1-.05-1.01-.3-2.03-.76-3.06-.46-1.03-1.16-1.93-2.12-2.7ZM376.91,22.34c1.34.48,2.52,1.39,3.53,2.74,1.01,1.34,1.51,2.74,1.51,4.18s-.5,2.83-1.51,4.18c-1.01,1.34-2.18,2.26-3.53,2.74,1.1-.91,1.93-2,2.48-3.28.55-1.27.83-2.48.83-3.64s-.28-2.36-.83-3.64c-.55-1.27-1.38-2.36-2.48-3.28ZM376.91,37.02c1.2.43,2.27,1.25,3.2,2.45.94,1.2,1.4,2.45,1.4,3.74s-.47,2.54-1.4,3.74c-.94,1.2-2,2.02-3.2,2.45,1.01-.82,1.74-1.79,2.2-2.92.46-1.13.69-2.22.69-3.28s-.23-2.15-.69-3.28c-.46-1.13-1.19-2.1-2.2-2.92ZM382.31,28.38c1.92.67,3.42,1.94,4.5,3.82,1.08,1.87,1.62,3.82,1.62,5.83s-.54,3.96-1.62,5.83c-1.08,1.87-2.58,3.14-4.5,3.82,1.54-1.3,2.82-2.82,3.85-4.57,1.03-1.75,1.55-3.44,1.55-5.08s-.52-3.32-1.55-5.08c-1.03-1.75-2.32-3.28-3.85-4.57Z"/>
      <path class="cls-1" d="M387.42,60.21c-1.49-.43-2.7-1.34-3.63-2.74-.94-1.39-1.43-2.86-1.48-4.39-.1-1.54.25-3.04,1.04-4.5.79-1.46,1.91-2.51,3.35-3.13-1.11,1.06-2.02,2.28-2.74,3.67-.72,1.39-1.06,2.69-1.01,3.89.1,1.25.55,2.53,1.37,3.85.82,1.32,1.85,2.44,3.1,3.35ZM392.17,45.45c-1.2-.43-2.26-1.26-3.17-2.48-.91-1.22-1.34-2.48-1.29-3.78,0-1.3.47-2.53,1.4-3.71.94-1.18,2.03-1.98,3.28-2.41-1.01.82-1.75,1.79-2.23,2.92-.48,1.13-.72,2.2-.72,3.2s.22,2.15.65,3.28c.43,1.13,1.13,2.12,2.09,2.99ZM399.16,55.53c-1.11.34-2.33.34-3.67,0-1.34-.33-2.35-.98-3.02-1.94-.72-.91-1.07-2.05-1.04-3.42.02-1.37.37-2.56,1.04-3.56-.29,1.15-.28,2.24.04,3.28.31,1.03.76,1.93,1.33,2.7.58.72,1.32,1.38,2.23,1.98.91.6,1.94.92,3.1.97ZM392.68,31.91c-.53-.77-.86-1.7-1.01-2.81-.14-1.1.05-2.04.58-2.81.53-.77,1.33-1.3,2.41-1.58s2.08-.33,2.99-.14c-.96.1-1.76.41-2.41.94-.65.53-1.16,1.1-1.55,1.73-.43.62-.77,1.33-1.01,2.12s-.24,1.65,0,2.56ZM403.33,72.81c-1.25.72-2.68,1.04-4.28.97-1.61-.07-2.94-.56-4-1.48-1.11-.91-1.85-2.15-2.23-3.71-.38-1.56-.34-3.01.14-4.36,0,1.39.31,2.67.94,3.85.62,1.18,1.37,2.12,2.23,2.84.86.72,1.93,1.27,3.2,1.66,1.27.38,2.6.46,4,.22ZM392.6,63.16c.29-1.3.97-2.48,2.05-3.56,1.08-1.08,2.27-1.69,3.56-1.84,1.29-.19,2.6.1,3.92.86,1.32.77,2.29,1.73,2.92,2.88-.96-.91-2.04-1.51-3.24-1.8-1.2-.29-2.33-.38-3.38-.29-1.01.14-2.05.53-3.13,1.15-1.08.62-1.98,1.49-2.7,2.59ZM395.7,19.46c.57-1.87,1.75-3.37,3.53-4.5,1.78-1.13,3.65-1.72,5.62-1.76,1.92-.05,3.79.43,5.62,1.44,1.82,1.01,3.1,2.42,3.81,4.25-1.29-1.44-2.8-2.64-4.5-3.6-1.7-.96-3.35-1.42-4.93-1.37-1.58.05-3.2.6-4.86,1.66-1.66,1.06-3.08,2.35-4.28,3.89ZM397.64,24.57c.38-1.39,1.21-2.64,2.48-3.74,1.27-1.1,2.65-1.7,4.14-1.8,1.49-.1,2.94.3,4.36,1.19,1.41.89,2.44,2,3.06,3.35-1.06-1.06-2.24-1.81-3.56-2.27-1.32-.46-2.56-.64-3.71-.54-1.2.05-2.41.4-3.64,1.04-1.22.65-2.27,1.57-3.13,2.77ZM406.21,61.5c.24-.48.55-.91.94-1.3-1.39,0-2.74-.41-4.03-1.22-1.3-.82-2.26-1.85-2.88-3.1,1.05,1.01,2.26,1.72,3.6,2.12,1.34.41,2.59.54,3.74.4.91-.1,1.85-.37,2.81-.83.96-.46,1.82-1.07,2.59-1.84.53-.96,1.2-1.68,2.02-2.16-.53.67-.82,1.38-.86,2.12-.05.74-.03,1.43.07,2.05.1.67.3,1.36.61,2.05.31.7.83,1.24,1.55,1.62-.29-.05-.6-.14-.94-.29.29.48.48.96.58,1.44-.58-.86-1.29-1.5-2.16-1.91-.86-.41-1.7-.64-2.52-.68-.82-.1-1.68-.05-2.59.14-.91.19-1.75.65-2.52,1.37ZM413.92,74.18c-.43.91-1.15,1.7-2.16,2.38-1.01.67-1.99.94-2.95.79-1.01-.1-1.93-.58-2.77-1.44-.84-.86-1.38-1.78-1.62-2.74.58.82,1.28,1.42,2.12,1.8.84.38,1.64.6,2.41.65.82.1,1.67.05,2.56-.14.89-.19,1.69-.62,2.41-1.3ZM422.99,78.14c-.53,1.73-1.6,3.12-3.2,4.18-1.61,1.06-3.3,1.63-5.08,1.73-1.83.05-3.59-.38-5.29-1.3-1.71-.91-2.89-2.19-3.56-3.82,1.2,1.3,2.6,2.36,4.21,3.2,1.61.84,3.13,1.24,4.57,1.19,1.44-.1,2.92-.62,4.43-1.58,1.51-.96,2.82-2.16,3.92-3.6ZM407.36,42.06c.29-.38.67-.74,1.15-1.08-.48,0-.91-.05-1.29-.14.81-.1,1.54-.35,2.16-.76.62-.41,1.18-.9,1.66-1.48-.05-.67.08-1.38.39-2.12.31-.74.73-1.43,1.26-2.05,0-.38-.07-.84-.21-1.37.24.29.43.62.58,1.01.29-.24.58-.48.86-.72-.29.38-.53.79-.72,1.22.24.72.35,1.49.32,2.3-.02.82-.25,1.54-.68,2.16l-.07.07c.14.48.29.91.43,1.3.91.58,1.61,1.49,2.09,2.74.24.19.53.38.86.58-.24-.05-.5-.1-.79-.14.14.38.22.77.22,1.15-.24-.58-.58-1.06-1.01-1.44-.67-.34-1.3-.77-1.87-1.3-.19-.1-.43-.17-.72-.22-.67-.24-1.42-.37-2.23-.4-.82-.02-1.61.21-2.38.68ZM412.48,58.12c-.05-.24-.05-.46,0-.65-.24.29-.5.55-.79.79.34.05.65.14.94.29-.05-.14-.1-.29-.14-.43ZM427.67,69.42c0,1.44-.43,2.83-1.29,4.18-.87,1.34-1.97,2.26-3.31,2.74-1.3.53-2.72.55-4.29.07-1.56-.48-2.8-1.25-3.71-2.3,1.25.72,2.53,1.1,3.85,1.15,1.32.05,2.51-.12,3.56-.5,1.05-.38,2.06-1.03,3.02-1.94.96-.91,1.68-2.04,2.16-3.38ZM418.81,23.06c.38-1.06,1.1-2,2.16-2.84,1.05-.84,2.16-1.26,3.31-1.26s2.18.42,3.24,1.26c1.06.84,1.78,1.79,2.16,2.84-.72-.86-1.57-1.48-2.55-1.84-.98-.36-1.93-.54-2.84-.54s-1.87.18-2.88.54c-1.01.36-1.87.97-2.59,1.84ZM432.06,58.98c.81.72,1.43,1.68,1.84,2.88.41,1.2.42,2.3.04,3.31-.34,1.01-1.06,1.84-2.16,2.48s-2.21.97-3.31.97c1.01-.38,1.84-.95,2.48-1.69.65-.74,1.12-1.52,1.4-2.34.29-.82.44-1.72.47-2.7.02-.98-.23-1.96-.76-2.92ZM430.84,23.06c1.3.34,2.46,1.07,3.49,2.2,1.03,1.13,1.62,2.34,1.76,3.64.1,1.34-.26,2.66-1.08,3.96s-1.82,2.23-3.02,2.81c.96-.96,1.62-2.03,1.98-3.2.36-1.18.49-2.29.39-3.35-.1-1.06-.43-2.14-1.01-3.24-.58-1.1-1.42-2.04-2.52-2.81ZM431.99,36.74c.91.34,1.75.95,2.52,1.84.77.89,1.15,1.81,1.15,2.77s-.38,1.88-1.15,2.77c-.77.89-1.58,1.48-2.45,1.76.72-.58,1.21-1.28,1.48-2.12.26-.84.39-1.64.39-2.41s-.13-1.57-.39-2.41c-.27-.84-.78-1.57-1.55-2.2ZM432.06,47.03c1.01.38,1.93,1.08,2.77,2.09.84,1.01,1.26,2.09,1.26,3.24s-.41,2.16-1.22,3.17c-.82,1.01-1.75,1.7-2.81,2.09.86-.72,1.46-1.56,1.8-2.52.34-.96.5-1.87.5-2.74,0-.91-.18-1.85-.54-2.81-.36-.96-.95-1.8-1.76-2.52ZM437.39,26.22c1.54.53,2.75,1.54,3.63,3.02.89,1.49,1.36,3.05,1.4,4.68,0,1.58-.46,3.12-1.37,4.61-.91,1.49-2.11,2.52-3.6,3.1,1.2-1.06,2.21-2.28,3.02-3.67.82-1.39,1.22-2.74,1.22-4.03-.05-1.3-.47-2.65-1.26-4.07-.79-1.42-1.81-2.63-3.06-3.64ZM437.46,41.63c1.34.48,2.44,1.39,3.28,2.74.84,1.34,1.26,2.76,1.26,4.25s-.41,2.9-1.22,4.25c-.82,1.34-1.92,2.26-3.31,2.74,1.1-.91,2.02-2.02,2.73-3.31.72-1.3,1.08-2.52,1.08-3.67s-.36-2.36-1.08-3.64c-.72-1.27-1.63-2.39-2.73-3.35Z"/>
      <path class="cls-1" d="M441.28,40.19c-1.39-1.2-2.26-2.78-2.59-4.75-.34-1.97-.17-3.82.5-5.54.67-1.78,1.79-3.28,3.35-4.5,1.56-1.22,3.25-1.81,5.08-1.76-1.73.62-3.32,1.51-4.79,2.66-1.46,1.15-2.46,2.42-2.99,3.82-.53,1.39-.65,3.01-.36,4.86.29,1.85.89,3.59,1.8,5.22ZM446.53,56.9c-1.54.05-2.95-.43-4.25-1.44-1.29-1.01-2.21-2.23-2.74-3.67-.53-1.39-.65-2.89-.36-4.5.29-1.61,1.01-2.92,2.16-3.92-.72,1.34-1.2,2.76-1.44,4.25-.24,1.49-.14,2.81.29,3.96.43,1.15,1.24,2.21,2.41,3.17,1.18.96,2.48,1.68,3.92,2.16ZM448.62,50.35c-1.39-.34-2.65-1.09-3.78-2.27-1.13-1.18-1.79-2.48-1.98-3.92-.14-1.39.19-2.8,1.01-4.21.82-1.42,1.85-2.44,3.1-3.06-.96,1.01-1.63,2.16-2.02,3.46s-.5,2.5-.36,3.6c.14,1.15.55,2.3,1.22,3.46.67,1.15,1.61,2.14,2.81,2.95ZM447.18,35.73c-.77-.96-1.22-2.15-1.37-3.56-.14-1.42.09-2.63.72-3.64.67-1.01,1.67-1.76,2.99-2.27,1.32-.5,2.58-.61,3.78-.32-1.2.14-2.26.56-3.17,1.26-.91.7-1.61,1.45-2.09,2.27-.53.82-.9,1.78-1.12,2.88-.22,1.1-.13,2.23.25,3.38ZM459.28,58.34c-1.06.77-2.33,1.19-3.82,1.26-1.49.07-2.76-.25-3.81-.97-1.06-.77-1.83-1.86-2.3-3.28-.48-1.42-.55-2.75-.22-4,.14,1.3.55,2.45,1.22,3.46.67,1.01,1.42,1.8,2.23,2.38.86.58,1.88,1,3.06,1.26,1.18.26,2.39.23,3.64-.11ZM454.24,25.29c.05-1.01.41-2.03,1.08-3.06.67-1.03,1.49-1.69,2.45-1.98,1.01-.29,2.06-.2,3.17.25,1.1.46,1.97,1.09,2.59,1.91-.86-.53-1.76-.8-2.7-.83-.94-.02-1.79.08-2.56.32-.77.24-1.54.62-2.3,1.15-.77.53-1.34,1.27-1.73,2.23ZM472.52,58.41c-.48,1.3-1.36,2.42-2.63,3.38-1.27.96-2.61,1.44-4,1.44-1.39-.05-2.72-.55-4-1.51-1.27-.96-2.15-2.09-2.63-3.38.91,1.06,1.97,1.84,3.17,2.34,1.2.5,2.35.78,3.46.83,1.1,0,2.25-.25,3.46-.76,1.2-.5,2.26-1.28,3.17-2.34ZM462.16,35.58c.1-.48.29-.98.58-1.51-.14-.19-.27-.38-.36-.58.14.14.29.29.43.43.34-.58.74-1.07,1.22-1.48.48-.41.98-.64,1.51-.68.67-.14,1.37-.02,2.09.36.72.38,1.32.84,1.8,1.37.1-.1.19-.22.29-.36-.05.19-.1.36-.14.5.14.24.29.46.43.65-.19-.14-.38-.26-.58-.36-.34.62-.79,1.19-1.37,1.69-.58.5-1.2.76-1.87.76-.58.05-1.15-.11-1.73-.47-.58-.36-1.06-.8-1.44-1.33-.34.29-.62.62-.86,1.01ZM463.6,49.98c.05-.24.12-.46.22-.65-.34-.05-.65-.14-.94-.29.38.05.74,0,1.08-.14.72-1.68,1.85-2.85,3.38-3.53.19-.48.26-.98.21-1.51.19.38.34.82.43,1.3.19-.05.41-.1.65-.14h.58c-.24-.38-.43-.77-.58-1.15.38.48.84.86,1.37,1.15.91.19,1.8.58,2.66,1.15.53.1,1.05.14,1.58.14.91,0,1.88-.18,2.92-.54,1.03-.36,1.91-1,2.63-1.91-.38,1.06-1.08,2-2.09,2.84-1.01.84-2.06,1.28-3.17,1.33.05.14.12.29.22.43-.14-.14-.31-.29-.5-.43-1.2,0-2.35-.43-3.46-1.3-.67-.1-1.32-.1-1.94,0-.29.05-.55.1-.79.14-.1.67-.31,1.18-.65,1.51-.38.43-.89.72-1.51.86-.62.14-1.25.17-1.87.07-.14.19-.29.41-.43.65ZM465.83,33.42c-.38.1-.78.21-1.19.32-.41.12-.8.3-1.19.54.43.19.88.31,1.33.36.46.05.9.05,1.33,0,.53,0,1.05-.06,1.58-.18.53-.12,1.01-.35,1.44-.68-.53-.29-1.08-.43-1.65-.43s-1.13.02-1.66.07ZM464.68,22.34c.72-1.1,1.78-1.99,3.17-2.66,1.39-.67,2.76-.89,4.1-.65,1.3.29,2.46,1.02,3.49,2.2,1.03,1.18,1.64,2.44,1.84,3.78-.67-1.2-1.52-2.16-2.56-2.88-1.03-.72-2.08-1.18-3.13-1.37-1.06-.24-2.21-.24-3.46,0-1.25.24-2.4.77-3.46,1.58ZM488.22,54.59c.38,1.73.13,3.46-.76,5.18s-2.1,3.07-3.63,4.03c-1.54.91-3.27,1.39-5.18,1.44-1.92.05-3.6-.5-5.04-1.66,1.73.58,3.49.84,5.29.79,1.8-.05,3.32-.46,4.57-1.22,1.2-.77,2.23-1.94,3.1-3.53.86-1.58,1.41-3.26,1.65-5.04ZM482.53,53.08c.19,1.06.06,2.17-.4,3.35-.46,1.18-1.14,2.05-2.05,2.63-.96.53-2.06.68-3.31.47-1.25-.22-2.28-.66-3.1-1.33,1.01.34,1.99.42,2.95.25.96-.17,1.82-.47,2.59-.9.72-.43,1.4-1.02,2.05-1.76.65-.74,1.07-1.64,1.26-2.7ZM475.33,18.31c1.2-.86,2.6-1.24,4.21-1.12,1.61.12,3.01.61,4.21,1.48,1.25.86,2.17,2.04,2.77,3.53.6,1.49.71,2.95.32,4.39-.1-1.49-.46-2.9-1.08-4.25-.62-1.34-1.44-2.38-2.45-3.1-.96-.67-2.17-1.09-3.64-1.26-1.46-.17-2.92-.06-4.36.32ZM475.91,48.47c.62-.58,1.45-1.01,2.48-1.3,1.03-.29,1.93-.24,2.7.14.77.38,1.34,1.07,1.73,2.05.38.98.53,1.91.43,2.77-.19-.86-.58-1.55-1.15-2.05-.58-.5-1.18-.9-1.8-1.19-.62-.33-1.32-.58-2.09-.72s-1.54-.05-2.3.29ZM478.21,25.58c1.06-.34,2.22-.34,3.49,0,1.27.34,2.24.94,2.92,1.8.62.86.91,1.96.87,3.28-.05,1.32-.36,2.44-.94,3.35.24-1.06.22-2.08-.07-3.06-.29-.98-.72-1.84-1.3-2.56-.53-.67-1.21-1.3-2.05-1.87-.84-.58-1.81-.89-2.92-.94ZM484.84,35.08c.72.72,1.25,1.66,1.58,2.81.33,1.15.31,2.18-.07,3.1-.43.91-1.19,1.63-2.27,2.16-1.08.53-2.12.77-3.13.72.96-.29,1.75-.77,2.38-1.44.62-.67,1.1-1.37,1.44-2.09.34-.77.55-1.61.65-2.52.1-.91-.1-1.82-.58-2.74Z"/>
    </g>
  </g>
</svg>